<svg width="16" height="16" viewBox="0 0 16 16" fill="none" xmlns="http://www.w3.org/2000/svg">
<path d="M7.99837 1.33331C6.15744 1.33331 4.66504 2.82598 4.66504 4.66665C4.66504 5.29065 4.95977 6.05798 5.49837 6.97931C5.67777 7.28598 5.90071 7.58865 6.12337 7.91665C6.42364 8.35931 6.74037 8.81531 7.06104 9.22931C7.13437 9.32331 7.23304 9.45465 7.33171 9.58331V11.3333C7.33171 11.7013 7.63037 12 7.99837 12C8.36637 12 8.66504 11.7013 8.66504 11.3333V9.58331C8.76371 9.45465 8.86237 9.32331 8.9357 9.22931C9.25637 8.81598 9.57304 8.35931 9.87304 7.91665C10.0957 7.58865 10.319 7.28598 10.4984 6.97931C11.037 6.05798 11.3317 5.29065 11.3317 4.66665C11.3317 2.82598 9.83904 1.33331 7.99837 1.33331ZM7.99837 2.66665C9.10304 2.66665 9.99837 3.56198 9.99837 4.66665C9.99837 4.98398 9.75771 5.56331 9.33171 6.29197C9.16837 6.57064 8.99704 6.88265 8.79037 7.18732C8.54104 7.55465 8.26637 7.89998 7.99837 8.24998C7.73037 7.89998 7.45637 7.55465 7.20637 7.18732C6.9997 6.88265 6.82837 6.57064 6.66504 6.29197C6.23917 5.56331 5.99837 4.98398 5.99837 4.66665C5.99837 3.56198 6.89371 2.66665 7.99837 2.66665Z" fill="#71717A"/>
<path fill-rule="evenodd" clip-rule="evenodd" d="M8.00033 5.33333C8.36852 5.33333 8.66699 5.03486 8.66699 4.66667C8.66699 4.29848 8.36852 4 8.00033 4C7.63214 4 7.33366 4.29848 7.33366 4.66667C7.33366 5.03486 7.63214 5.33333 8.00033 5.33333ZM2.66699 11.6667C2.66699 10.546 3.62732 9.642 5.10446 9.12533C5.45199 9.00333 5.83706 9.19401 5.95866 9.54135C6.08026 9.88935 5.88953 10.2533 5.54199 10.3747C4.53899 10.726 4.00033 11.2453 4.00033 11.6667C4.00033 12.4613 5.74393 13.3333 8.00033 13.3333C10.257 13.3333 12.0003 12.4613 12.0003 11.6667C12.0003 11.244 11.445 10.726 10.4377 10.3747C10.0903 10.254 9.92099 9.88935 10.0417 9.54135C10.163 9.19401 10.5277 9.004 10.875 9.12533C12.357 9.64133 13.3337 10.5433 13.3337 11.6667C13.3337 13.4493 10.8983 14.6667 8.00033 14.6667C5.10206 14.6667 2.66699 13.4493 2.66699 11.6667Z" fill="#71717A" fill-opacity="0.4"/>
</svg>
