<svg width="16" height="16" viewBox="0 0 16 16" fill="none" xmlns="http://www.w3.org/2000/svg">
<path d="M8.00035 4.02972C7.86691 4.02972 7.75879 3.9216 7.75879 3.78816V1.72972C7.75879 1.59628 7.86691 1.48816 8.00035 1.48816C8.13379 1.48816 8.24191 1.59628 8.24191 1.72972V3.78816C8.24191 3.9216 8.13379 4.02972 8.00035 4.02972Z" fill="#F8D7E3"/>
<path d="M10.217 9.00994L9.86727 8.38838L8.00008 5.90088L6.13289 8.38838L5.7832 9.00994L8.00008 11.4024L10.217 9.00994Z" fill="#FFCBDE"/>
<path d="M5.78344 9.01001L1.85156 16H3.74031L8.00063 11.4025L5.78375 9.01001H5.78344Z" fill="#FFB1CE"/>
<path d="M8 11.4025L12.2603 16H14.1491L10.2172 9.01001L8.00031 11.4025H8Z" fill="#FFB1CE"/>
<path d="M3.73926 16H12.2599L7.99957 11.4025L3.73926 16Z" fill="#FF92BA"/>
<path d="M4 0H12V1.13406H4V0Z" fill="#F0C2D3"/>
<path d="M10.7998 0H12.0876V1.13406H10.7998V0Z" fill="#F5C8D9"/>
<path d="M7.99969 2.37379C7.47344 2.37379 7.04688 1.94723 7.04688 1.42098V1.13379H8.9525V1.42098C8.9525 1.94723 8.52594 2.37379 7.99969 2.37379Z" fill="#DB306E"/>
<path d="M9.57363 6.86691V4.71785C9.57363 3.84878 8.86926 3.14441 8.0002 3.14441C7.13113 3.14441 6.42676 3.84878 6.42676 4.71785V6.8366L9.57363 6.86691Z" fill="#DB306E"/>
<path d="M8.0002 3.14441C7.77082 3.14441 7.55301 3.1941 7.35645 3.28222C7.90426 3.52816 8.28613 4.07816 8.28613 4.71785V6.85441L9.57395 6.86691V4.71785C9.57395 3.84878 8.86957 3.14441 8.00051 3.14441H8.0002Z" fill="#D92365"/>
<path d="M5.96289 6.87494C5.96289 6.33682 6.87477 5.90088 7.99977 5.90088C9.12477 5.90088 10.0366 6.33713 10.0366 6.87494V7.90525C10.0366 7.36713 9.12477 6.93119 7.99977 6.93119C6.87477 6.93119 5.96289 7.36744 5.96289 7.90525V6.87494Z" fill="#DF487F"/>
<path d="M7.99977 8.87317C9.1247 8.87317 10.0366 8.43707 10.0366 7.89911C10.0366 7.36115 9.1247 6.92505 7.99977 6.92505C6.87483 6.92505 5.96289 7.36115 5.96289 7.89911C5.96289 8.43707 6.87483 8.87317 7.99977 8.87317Z" fill="#E87DA4"/>
</svg>
