<svg width="40" height="40" viewBox="0 0 40 40" fill="none" xmlns="http://www.w3.org/2000/svg">
<g clip-path="url(#clip0_2717_1907)">
<path d="M2.52578 9.41327H0.660156C0.295312 9.41327 0 9.70858 0 10.0734V34.2156C0 34.5797 0.295312 34.8758 0.660156 34.8758H18.3563C18.4492 35.2812 18.8109 35.5844 19.2453 35.5844H20.8867C21.3203 35.5844 21.6828 35.2812 21.7758 34.8758H39.3406C39.7055 34.8758 40.0008 34.5805 40.0008 34.2156V10.0734C40.0008 9.70858 39.7055 9.41327 39.3406 9.41327H37.475V32.6641C37.475 32.9141 37.2391 33.0992 36.9898 33.0469C35.4414 32.7195 33.8422 32.1125 31.7594 31.0391C27.4562 28.8219 23.8422 30.0125 21.8 31.1555C21.7211 31.2039 20.7023 31.7601 20.0016 32.4242C19.5844 32.0266 18.7563 31.4609 18.3344 31.2305C16.318 30.0664 12.6406 28.7742 8.24375 31.0391C6.16094 32.1125 4.56172 32.7195 3.01328 33.0469C2.76328 33.1 2.52813 32.9141 2.52813 32.6641V9.41327" fill="#4DB2B4"/>
<path d="M2.41484 9.41327H0.660156C0.295312 9.41327 0 9.70858 0 10.0734V34.2156C0 34.5797 0.295312 34.8758 0.660156 34.8758H2.41484V9.41327Z" fill="#2DAEB1"/>
<path d="M37.2307 31.261C35.6822 30.9258 33.8416 30.3039 31.7588 29.2063C25.04 25.6633 19.9346 30.6586 19.9346 30.6586L20.001 32.8266C20.001 32.8266 25.04 27.9797 31.7588 31.4414C33.8416 32.5149 35.6822 33.1219 37.2307 33.4492C37.4807 33.5024 37.7158 33.3164 37.7158 33.0664V30.8696C37.7158 31.125 37.4799 31.3149 37.2307 31.261Z" fill="#D5EDED"/>
<path d="M22.4672 28.9734C20.8695 29.7422 19.9336 30.6578 19.9336 30.6578L20 32.8258C20 32.8258 20.9086 31.9524 22.4672 31.2117V28.9734Z" fill="#BFE4E4"/>
<path d="M8.24219 29.2062C6.15937 30.3047 4.31875 30.9265 2.77031 31.2609C2.52031 31.3148 2.28516 31.125 2.28516 30.8695V33.0664C2.28516 33.3164 2.52109 33.5015 2.77031 33.4492C4.31875 33.1219 6.15937 32.5148 8.24219 31.4414C14.9609 27.9797 20 32.8265 20 32.8265V30.6242C20 30.6242 14.9609 25.664 8.24219 29.207V29.2062Z" fill="#D5EDED"/>
<path d="M4.69902 30.7313C4.01387 30.9578 3.36934 31.1313 2.76934 31.2617C2.51934 31.3156 2.28418 31.1258 2.28418 30.8703V33.0672C2.28418 33.3172 2.52012 33.5024 2.76934 33.45C3.36934 33.3235 4.01387 33.1539 4.69902 32.932V30.732V30.7313Z" fill="#BFE4E4"/>
<path d="M37.3959 7.81955C35.8139 7.49377 33.9154 6.86721 31.7576 5.72971C25.0389 2.18674 19.9639 7.18205 19.9639 7.18205L19.9998 30.6242C19.9998 30.6242 25.0389 25.6641 31.7576 29.2071C33.8404 30.3055 35.6811 30.9274 37.2295 31.2617C37.4795 31.3156 37.7146 31.1258 37.7146 30.8703V8.21096C37.7146 8.02111 37.5818 7.85783 37.3951 7.81955H37.3959Z" fill="#E8F5F5"/>
<path d="M22.467 5.50549C20.8873 6.27268 19.9639 7.18127 19.9639 7.18127L19.9998 30.6242C19.9998 30.6242 20.9084 29.7305 22.467 28.9727V5.50549Z" fill="#D5EDED"/>
<path d="M34.2441 12.4305C33.3309 12.0844 32.3996 11.6617 31.4762 11.175C27.8598 9.26799 24.7645 9.98049 22.8051 10.9141C22.5043 11.0578 22.1441 10.9297 22.0004 10.6289C21.8566 10.3281 21.9848 9.96799 22.2855 9.82424C24.4949 8.77189 27.9801 7.96643 32.0387 10.1071C32.9184 10.5711 33.8043 10.9735 34.6715 11.3016C34.9832 11.4196 35.1402 11.768 35.0215 12.0797C34.9035 12.3914 34.5551 12.5485 34.2434 12.4297L34.2441 12.4305Z" fill="#D5EDED"/>
<path d="M34.2441 15.4133C33.3309 15.0672 32.3996 14.6445 31.4762 14.1578C27.8598 12.2508 24.7645 12.9633 22.8051 13.8969C22.5043 14.0406 22.1441 13.9125 22.0004 13.6117C21.8566 13.3109 21.9848 12.9508 22.2855 12.807C24.4949 11.7547 27.9801 10.9492 32.0387 13.0898C32.9184 13.5539 33.8043 13.9562 34.6715 14.2844C34.9832 14.4023 35.1402 14.7508 35.0215 15.0625C34.9035 15.3742 34.5551 15.5312 34.2434 15.4125L34.2441 15.4133Z" fill="#D5EDED"/>
<path d="M34.2441 18.3961C33.3309 18.05 32.3996 17.6273 31.4762 17.1406C27.8598 15.2336 24.7645 15.9461 22.8051 16.8797C22.5043 17.0226 22.1441 16.8953 22.0004 16.5945C21.8566 16.2937 21.9848 15.9336 22.2855 15.7898C24.4949 14.7375 27.9801 13.932 32.0387 16.0726C32.9184 16.5367 33.8043 16.9383 34.6715 17.2672C34.9832 17.3851 35.1402 17.7336 35.0215 18.0453C34.9035 18.357 34.5551 18.514 34.2434 18.3953L34.2441 18.3961Z" fill="#D5EDED"/>
<path d="M34.2441 21.3797C33.3309 21.0336 32.3996 20.611 31.4762 20.1242C27.8598 18.2172 24.7645 18.9297 22.8051 19.8633C22.5043 20.0071 22.1441 19.8789 22.0004 19.5781C21.8566 19.2774 21.9848 18.9172 22.2855 18.7735C24.4949 17.7211 27.9801 16.9156 32.0387 19.0563C32.9191 19.5203 33.8043 19.9227 34.6715 20.2508C34.9832 20.3688 35.1402 20.7172 35.0215 21.0289C34.9035 21.3406 34.5551 21.4977 34.2434 21.3789L34.2441 21.3797Z" fill="#D5EDED"/>
<path d="M34.2441 24.3625C33.3316 24.0164 32.3996 23.5937 31.4762 23.107C27.8598 21.2 24.7645 21.9125 22.8051 22.8461C22.5043 22.9891 22.1441 22.8617 22.0004 22.5609C21.8566 22.2602 21.9848 21.9 22.2855 21.7562C24.4949 20.7039 27.9801 19.8984 32.0387 22.0391C32.9191 22.5031 33.8051 22.9055 34.6715 23.2336C34.9832 23.3516 35.1402 23.7 35.0215 24.0117C34.9035 24.3227 34.5559 24.4805 34.2434 24.3625H34.2441Z" fill="#D5EDED"/>
<path d="M34.2441 27.3453C33.3309 26.9992 32.3996 26.5765 31.4762 26.0898C27.8598 24.1828 24.7645 24.8953 22.8051 25.8289C22.5043 25.9718 22.1441 25.8445 22.0004 25.5437C21.8566 25.2422 21.9848 24.8828 22.2855 24.739C24.4941 23.6867 27.9801 22.8812 32.0387 25.0218C32.9184 25.4859 33.8043 25.8875 34.6715 26.2164C34.9832 26.3351 35.1402 26.6836 35.0223 26.9945C34.9035 27.3062 34.5551 27.4633 34.2441 27.3453Z" fill="#D5EDED"/>
<path d="M2.60391 7.8195C4.18594 7.49372 6.08437 6.86716 8.24219 5.72966C14.9609 2.18669 20 7.14685 20 7.14685V30.6242C20 30.6242 14.9609 25.664 8.24219 29.207C6.15937 30.3054 4.31875 30.9273 2.77031 31.2617C2.52031 31.3156 2.28516 31.1258 2.28516 30.8703V8.21091C2.28516 8.02106 2.41797 7.85778 2.60469 7.8195H2.60391Z" fill="#E8F5F5"/>
<path d="M4.69902 7.25311C3.95059 7.50155 3.25059 7.68593 2.60371 7.81874C2.41777 7.85702 2.28418 8.0203 2.28418 8.21014V30.8695C2.28418 31.125 2.52012 31.3148 2.76934 31.2609C3.36934 31.1312 4.01387 30.9578 4.69902 30.7305V7.25311Z" fill="#D5EDED"/>
<path d="M5.10857 12.0797C4.9906 11.768 5.14763 11.4196 5.45935 11.3016C6.32654 10.9727 7.21248 10.5711 8.09216 10.1071C12.1508 7.96643 15.6367 8.77189 17.8453 9.82424C18.1469 9.96799 18.2742 10.3281 18.1304 10.6289C17.9875 10.9297 17.6265 11.0578 17.3258 10.9141C15.3656 9.98049 12.2711 9.26799 8.65466 11.175C7.73123 11.6617 6.79998 12.0844 5.88669 12.4305C5.57498 12.5485 5.22654 12.3922 5.10857 12.0805V12.0797Z" fill="#D5EDED"/>
<path d="M5.10857 15.0625C4.9906 14.7508 5.14763 14.4023 5.45935 14.2844C6.32654 13.9555 7.21248 13.5539 8.09216 13.0898C12.1508 10.95 15.6367 11.7547 17.8453 12.807C18.1469 12.9508 18.2742 13.3109 18.1304 13.6117C17.9875 13.9125 17.6265 14.0406 17.3258 13.8969C15.3656 12.9633 12.2711 12.2508 8.65466 14.1578C7.73123 14.6445 6.79998 15.0672 5.88669 15.4133C5.57498 15.5312 5.22654 15.375 5.10857 15.0625Z" fill="#D5EDED"/>
<path d="M5.10857 18.0461C4.9906 17.7344 5.14763 17.3859 5.45935 17.268C6.32654 16.939 7.21248 16.5375 8.09216 16.0734C12.1508 13.9328 15.6367 14.7383 17.8453 15.7906C18.1469 15.9344 18.2742 16.2945 18.1304 16.5953C17.9875 16.8961 17.6265 17.0242 17.3258 16.8805C15.3656 15.9469 12.2711 15.2344 8.65466 17.1414C7.73123 17.6281 6.79998 18.0508 5.88669 18.3969C5.57498 18.5148 5.22654 18.3578 5.10857 18.0469V18.0461Z" fill="#D5EDED"/>
<path d="M5.10857 21.0289C4.9906 20.7172 5.14763 20.3688 5.45935 20.2508C6.32654 19.9219 7.21248 19.5203 8.09216 19.0563C12.1508 16.9156 15.6367 17.7211 17.8453 18.7735C18.1469 18.9172 18.2742 19.2774 18.1304 19.5781C17.9875 19.8789 17.6265 20.0071 17.3258 19.8633C15.3656 18.9297 12.2711 18.2172 8.65466 20.1242C7.73123 20.611 6.79998 21.0336 5.88669 21.3797C5.57498 21.4977 5.22654 21.3406 5.10857 21.0289Z" fill="#D5EDED"/>
<path d="M5.10857 24.0117C4.9906 23.7 5.14763 23.3516 5.45935 23.2336C6.32576 22.9055 7.2117 22.5031 8.09216 22.0391C12.1508 19.8984 15.6367 20.7039 17.8453 21.7562C18.1469 21.9 18.2742 22.2602 18.1304 22.5609C17.9875 22.8617 17.6265 22.9898 17.3258 22.8461C15.3656 21.9125 12.2711 21.2 8.65466 23.107C7.73123 23.5945 6.79919 24.0164 5.88669 24.3625C5.57498 24.4812 5.22654 24.3234 5.10857 24.0125V24.0117Z" fill="#D5EDED"/>
<path d="M5.1089 26.9945C4.99015 26.6828 5.14796 26.3343 5.4589 26.2164C6.32608 25.8875 7.21202 25.4859 8.09171 25.0218C12.1511 22.8812 15.6362 23.6867 17.8448 24.739C18.1456 24.8828 18.2737 25.2429 18.13 25.5437C17.9862 25.8453 17.6261 25.9726 17.3253 25.8289C15.3659 24.8953 12.2706 24.1828 8.65421 26.0898C7.73077 26.5765 6.79952 26.9992 5.88624 27.3453C5.57452 27.464 5.22608 27.307 5.10811 26.9953L5.1089 26.9945Z" fill="#D5EDED"/>
<path d="M20.4986 32.4094C20.2033 32.636 19.7939 32.6336 19.4986 32.4071C19.2182 32.1922 18.8252 31.9156 18.333 31.6313V34.6703C18.333 35.1742 18.7416 35.5828 19.2455 35.5828H20.8869C21.3908 35.5828 21.7994 35.1742 21.7994 34.6703V31.5563C21.2439 31.8672 20.8049 32.1742 20.4994 32.4086L20.4986 32.4094Z" fill="#2DAEB1"/>
<path d="M20.7346 34.6711V32.2344C20.6494 32.2961 20.5697 32.3547 20.4986 32.4094C20.2033 32.6359 19.7939 32.6336 19.4986 32.407C19.2182 32.1922 18.8252 31.9156 18.333 31.632V34.6711C18.333 35.175 18.7416 35.5836 19.2455 35.5836H20.8869C21.0229 35.5836 21.151 35.5531 21.2674 35.5C20.9533 35.3562 20.7354 35.0398 20.7354 34.6711H20.7346Z" fill="#2BA4A6"/>
</g>
<defs>
<clipPath id="clip0_2717_1907">
<rect width="40" height="40" fill="white"/>
</clipPath>
</defs>
</svg>
