<svg width="24" height="24" viewBox="0 0 24 24" fill="none" xmlns="http://www.w3.org/2000/svg">
<path fill-rule="evenodd" clip-rule="evenodd" d="M21.7098 21.71C21.3198 22.1 20.6798 22.1 20.2898 21.71L17.0498 18.46C17.5698 18.04 18.0398 17.57 18.4598 17.05L21.7098 20.29C22.0998 20.68 22.0998 21.32 21.7098 21.71Z" fill="white" fill-opacity="0.4"/>
<path fill-rule="evenodd" clip-rule="evenodd" d="M11.25 18.5C15.2541 18.5 18.5 15.2541 18.5 11.25C18.5 7.24594 15.2541 4 11.25 4C7.24594 4 4 7.24594 4 11.25C4 15.2541 7.24594 18.5 11.25 18.5ZM11.25 20.5C16.3586 20.5 20.5 16.3586 20.5 11.25C20.5 6.14137 16.3586 2 11.25 2C6.14137 2 2 6.14137 2 11.25C2 16.3586 6.14137 20.5 11.25 20.5Z" fill="white"/>
</svg>
