<svg width="16" height="16" viewBox="0 0 16 16" fill="none" xmlns="http://www.w3.org/2000/svg">
<path d="M7.99968 1.33337C4.31768 1.33337 1.33301 4.31804 1.33301 8.00004C1.33301 11.682 4.31768 14.6667 7.99968 14.6667C11.6817 14.6667 14.6664 11.682 14.6664 8.00004C14.6664 4.31804 11.6817 1.33337 7.99968 1.33337Z" fill="#4A43EC" fill-opacity="0.4"/>
<path d="M5.99968 5.99927C5.63167 5.99927 5.33301 6.29793 5.33301 6.66593V7.3326C5.33301 7.7006 5.63167 7.99927 5.99968 7.99927C6.36768 7.99927 6.66634 7.7006 6.66634 7.3326V6.66593C6.66634 6.29793 6.36768 5.99927 5.99968 5.99927ZM9.99968 6.39526C9.27568 6.39526 8.66635 6.61393 8.66635 7.3326C8.66635 7.7006 8.96501 7.99927 9.33301 7.99927C9.54035 7.99927 9.71101 7.89793 9.83301 7.74927C9.87968 7.73993 9.92768 7.7286 9.99968 7.7286C10.0717 7.7286 10.1197 7.73993 10.1663 7.74927C10.2883 7.89793 10.459 7.99927 10.6663 7.99927C11.0344 7.99927 11.333 7.7006 11.333 7.3326C11.333 6.61393 10.7237 6.39526 9.99968 6.39526ZM6.125 9.2286C5.95433 9.2286 5.77567 9.28593 5.64567 9.41593C5.385 9.6766 5.385 10.0933 5.64567 10.3533C6.26634 10.9733 7.10501 11.3326 7.99968 11.3326C8.89168 11.3326 9.73369 10.9699 10.3537 10.3533C10.615 10.0939 10.6137 9.67727 10.3537 9.41593C10.0944 9.1546 9.67768 9.1566 9.41635 9.41593C9.04368 9.7866 8.53568 9.99927 7.99968 9.99927C7.46168 9.99927 6.95634 9.7886 6.58301 9.41593C6.45301 9.28593 6.295 9.2286 6.125 9.2286Z" fill="#4A43EC"/>
</svg>
