<svg width="14" height="14" viewBox="0 0 14 14" fill="none" xmlns="http://www.w3.org/2000/svg">
<path d="M4.93981 7.76561C3.4148 8.1824 2.33301 9.50844 2.33301 11.0833V12.25C2.33301 12.5722 2.59417 12.8333 2.91634 12.8333H11.083C11.4052 12.8333 11.6663 12.5722 11.6663 12.25V11.0833C11.6663 9.50844 10.5845 8.1824 9.05954 7.76561C8.92882 7.72985 8.80037 7.74636 8.67676 7.80207C8.14272 8.04275 7.5742 8.16665 6.99967 8.16665C6.42515 8.16665 5.85663 8.04275 5.32259 7.80207C5.19898 7.74636 5.07053 7.72985 4.93981 7.76561Z" fill="#4A43EC" fill-opacity="0.4"/>
<path d="M6.99967 1.16669C5.38886 1.16669 4.08301 2.47254 4.08301 4.08335C4.08301 5.69417 5.38886 7.00002 6.99967 7.00002C8.61049 7.00002 9.91634 5.69417 9.91634 4.08335C9.91634 2.47254 8.61049 1.16669 6.99967 1.16669Z" fill="#4A43EC"/>
</svg>
