<svg width="20" height="20" viewBox="0 0 20 20" fill="none" xmlns="http://www.w3.org/2000/svg">
<path d="M6.24935 2.5C3.71802 2.5 1.66602 4.55167 1.66602 7.08334C1.66602 9.73668 3.17727 12.24 5.67643 14.5317C6.52943 15.3134 7.44785 15.9992 8.35868 16.615C8.67793 16.83 8.97652 17.025 9.24418 17.1875C9.40735 17.2867 9.51493 17.3584 9.58268 17.3959C9.83435 17.5359 10.1644 17.5359 10.416 17.3959C10.4838 17.3584 10.5914 17.2867 10.7545 17.1875C11.0222 17.025 11.3208 16.83 11.64 16.615C12.5509 15.9992 13.4693 15.3134 14.3223 14.5317C16.8214 12.24 18.3327 9.73668 18.3327 7.08334C18.3327 4.55167 16.2807 2.5 13.7494 2.5C12.3117 2.5 10.908 3.28334 10.0254 4.42668C9.16468 3.26334 7.76593 2.5 6.24935 2.5ZM6.24935 4.16667C7.26093 4.16667 8.2056 4.68001 8.74935 5.46835C8.80218 5.54502 9.21877 6.15751 9.29618 6.27585C9.6186 6.77001 10.3379 6.78502 10.6764 6.30168C10.7588 6.18418 11.1924 5.57417 11.2494 5.495C11.8169 4.70167 12.8104 4.16667 13.7494 4.16667C15.3602 4.16667 16.666 5.47251 16.666 7.08334C16.666 9.16918 15.3648 11.275 13.1764 13.2817C12.3888 14.0033 11.5494 14.6617 10.7025 15.2342C10.4464 15.4075 10.218 15.5425 9.99935 15.6767C9.78068 15.5425 9.55227 15.4075 9.29618 15.2342C8.44927 14.6617 7.60993 14.0033 6.82227 13.2817C4.63393 11.275 3.33268 9.16918 3.33268 7.08334C3.33268 5.47251 4.63852 4.16667 6.24935 4.16667Z" fill="#D4D4D8"/>
<path d="M6.24968 4.16669C7.26126 4.16669 8.20593 4.68003 8.74968 5.46837C8.80251 5.54503 9.21909 6.15753 9.29651 6.27586C9.61893 6.77003 10.3383 6.78504 10.6768 6.3017C10.7591 6.1842 11.1927 5.57419 11.2497 5.49502C11.8173 4.70168 12.8107 4.16669 13.7497 4.16669C15.3605 4.16669 16.6663 5.47252 16.6663 7.08336C16.6663 9.1692 15.3651 11.275 13.1768 13.2817C12.3891 14.0034 11.5498 14.6617 10.7028 15.2342C10.4468 15.4075 10.2183 15.5426 9.99968 15.6767C9.78101 15.5426 9.55259 15.4075 9.29651 15.2342C8.44959 14.6617 7.61026 14.0034 6.82259 13.2817C4.63426 11.275 3.33301 9.1692 3.33301 7.08336C3.33301 5.47252 4.63884 4.16669 6.24968 4.16669Z" fill="#D4D4D8"/>
</svg>
