<svg width="40" height="40" viewBox="0 0 40 40" fill="none" xmlns="http://www.w3.org/2000/svg">
<g clip-path="url(#clip0_2717_1784)">
<path d="M13.6112 7.29288C13.6159 8.65402 12.5178 9.76162 11.1566 9.76712H4.28498C2.93404 9.74435 1.85156 8.64303 1.85156 7.2921C1.85156 5.94116 2.93482 4.83984 4.28498 4.81708C4.50084 4.81708 4.71514 4.84691 4.92316 4.90657C5.30073 3.67809 6.4358 2.83817 7.72159 2.83817C9.00737 2.83817 10.1424 3.6773 10.5192 4.90657C10.7265 4.84691 10.9408 4.81708 11.1566 4.81708C12.5178 4.82336 13.6167 5.93096 13.6112 7.2921V7.29288Z" fill="#E2CCBD"/>
<path d="M24.3932 11.3402C24.4513 11.2256 24.569 11.1534 24.6978 11.1534C24.8265 11.1534 24.9443 11.2256 25.0024 11.3402L38.5565 36.7921H11.5322L24.3932 11.3402Z" fill="#A46130"/>
<path d="M30.477 36.7943L14.778 7.05131C14.7171 6.93274 14.5953 6.85803 14.463 6.85803C14.3306 6.85803 14.208 6.93274 14.1471 7.05131L0.125 36.9656L30.477 36.7943Z" fill="#CFAB91"/>
<path d="M28.2177 17.3759L27.4555 18.5604L27.1714 19.0039C27.0842 19.1687 26.928 19.2857 26.7459 19.3234C26.5638 19.3611 26.3738 19.3147 26.2286 19.1986L25.1689 18.3531C25.0402 18.2495 24.8745 18.2016 24.7105 18.2213C24.5464 18.2409 24.3965 18.3257 24.2952 18.4568L23.7756 19.0738L22.0918 15.893L24.0111 12.0891L24.3926 11.3402C24.4506 11.2256 24.5684 11.1534 24.6971 11.1534C24.8259 11.1534 24.9436 11.2256 25.0017 11.3402L28.2169 17.3759H28.2177Z" fill="#F0E6DE"/>
<path d="M17.9035 12.9656L16.8851 13.7688L15.0214 15.2451C14.7063 15.5034 14.263 15.5318 13.917 15.3166L10.8701 13.4813L13.753 7.82523L14.1468 7.05051C14.2077 6.93195 14.3295 6.85724 14.4627 6.85724C14.5959 6.85724 14.7177 6.93195 14.7778 7.05051L17.9035 12.9648V12.9656Z" fill="#F0E6DE"/>
<path d="M39.2501 7.29288C39.2556 8.65402 38.1574 9.76162 36.7963 9.76712H29.9246C28.5737 9.74435 27.4912 8.64303 27.4912 7.2921C27.4912 5.94116 28.5745 4.83984 29.9246 4.81708C30.1405 4.81708 30.3548 4.84691 30.5628 4.90657C30.9396 3.67809 32.0747 2.83817 33.3604 2.83817C34.6462 2.83817 35.7813 3.6773 36.1581 4.90657C36.3653 4.84691 36.5804 4.81708 36.7963 4.81708C38.1574 4.82336 39.2556 5.93174 39.2501 7.2921V7.29288Z" fill="#E2CCBD"/>
<path d="M30.4767 36.7943C29.7704 36.7935 29.1666 36.7935 28.8516 36.7935L21.1014 21.7466L20.3705 20.3628L16.8867 13.768L17.9051 12.9648L21.0738 18.9717L21.8046 20.3628L30.4784 36.7935L30.4767 36.7943Z" fill="#C29675"/>
<path d="M17.9034 12.9656L16.8851 13.7688L13.7529 7.82523L14.1468 7.05051C14.2077 6.93195 14.3295 6.85724 14.4627 6.85724C14.5959 6.85724 14.7177 6.93195 14.7778 7.05051L17.9034 12.9648V12.9656Z" fill="#E2CCBD"/>
<path d="M38.3711 36.4978C38.3075 36.4868 38.2424 36.4813 38.1772 36.4837H36.9786L27.4561 18.5604L28.2183 17.3759L38.3711 36.4978Z" fill="#9A4F1A"/>
<path d="M28.2176 17.3758L27.4554 18.5604L24.0117 12.0883L24.3932 11.3394C24.4513 11.2248 24.569 11.1526 24.6978 11.1526C24.8265 11.1526 24.9443 11.2248 25.0024 11.3394L28.2176 17.3751V17.3758Z" fill="#E2CCBD"/>
</g>
<defs>
<clipPath id="clip0_2717_1784">
<rect width="40" height="40" fill="white"/>
</clipPath>
</defs>
</svg>
