<svg width="24" height="24" viewBox="0 0 24 24" fill="none" xmlns="http://www.w3.org/2000/svg">
<path d="M18.9744 10.2423V7.65498C18.9744 7.23258 18.6288 6.72448 18.2069 6.52469L9.64928 2.48489C9.22688 2.28566 8.88184 2.4682 8.88184 2.89004V5.47731L13.9284 8.87488L18.9749 10.2417L18.9744 10.2423Z" fill="#F1DC54"/>
<path d="M15.8949 21.1969C13.3149 21.6532 12.6832 19.8801 12.814 19.598C13.1913 18.7821 14.0929 18.1833 15.3974 17.9523C16.3986 17.7754 17.4209 17.9462 18.1149 18.126C18.638 18.2618 18.4755 20.7405 15.8955 21.1969H15.8949Z" fill="#F1DC54"/>
<path d="M6.66346 16.8381C4.08342 17.2944 3.45177 15.5214 3.58255 15.2392C3.95987 14.4233 4.86144 13.8245 6.16592 13.5936C7.16711 13.4166 8.18944 13.5874 8.88342 13.7672C9.40655 13.903 9.24405 16.3817 6.66401 16.8381H6.66346Z" fill="#F1DC54"/>
<path d="M18.9749 10.2422L8.88181 5.47778V13.7672C8.88181 15.2525 7.88285 16.2003 6.56222 16.4335C5.19596 16.675 4.03116 16.1051 3.58149 15.2392C3.45126 15.5213 3.38281 15.8296 3.38281 16.158C3.38281 17.4341 4.8064 18.4648 6.56222 18.1537C8.31805 17.8426 9.74163 16.5108 9.74163 14.0432V7.60314L18.1145 11.5556V18.1253C18.1145 19.6107 17.1156 20.5584 15.7949 20.7916C14.4287 21.0331 13.2639 20.4633 12.8142 19.5973C12.684 19.8795 12.6155 20.1878 12.6155 20.5161C12.6155 21.7922 14.0391 22.8229 15.7949 22.5118C17.5508 22.2007 18.9743 20.869 18.9743 18.4013V10.2416L18.9749 10.2422Z" fill="#EBCB00"/>
<path d="M21.734 15.0896C22.134 15.0896 22.4582 14.7653 22.4582 14.3653C22.4582 13.9654 22.134 13.6411 21.734 13.6411C21.334 13.6411 21.0098 13.9654 21.0098 14.3653C21.0098 14.7653 21.334 15.0896 21.734 15.0896Z" fill="#F1DC54"/>
<path d="M6.06113 4.17097C6.46111 4.17097 6.78535 3.84673 6.78535 3.44675C6.78535 3.04678 6.46111 2.72253 6.06113 2.72253C5.66116 2.72253 5.33691 3.04678 5.33691 3.44675C5.33691 3.84673 5.66116 4.17097 6.06113 4.17097Z" fill="#F1DC54"/>
<path d="M3.88828 20.2697C4.28826 20.2697 4.6125 19.9455 4.6125 19.5455C4.6125 19.1455 4.28826 18.8213 3.88828 18.8213C3.48831 18.8213 3.16406 19.1455 3.16406 19.5455C3.16406 19.9455 3.48831 20.2697 3.88828 20.2697Z" fill="#F1DC54"/>
<path d="M19.1151 2.10848C18.1865 2.10848 16.1943 1.41238 15.974 1.9566C15.8277 2.31754 15.7907 2.72629 15.8924 3.13269C16.3007 4.76113 17.6502 5.04238 20.2631 6.2616C21.9918 3.95348 23.0493 3.06941 22.641 1.44051C22.6345 1.41473 22.6274 1.38894 22.6199 1.36316C22.3326 0.390038 20.0437 2.10801 19.1151 2.10801V2.10848Z" fill="#EBCB00"/>
<path d="M20.3326 0.0576895C19.697 0.217065 19.2165 0.679252 19.0074 1.2516C18.5527 0.845658 17.9115 0.664721 17.2759 0.824096C16.6627 0.977846 16.1949 1.41285 15.9746 1.9566C16.464 3.34831 17.8037 3.66519 20.2632 4.81316C21.4534 3.22456 22.3248 2.3105 22.6196 1.3641C22.3323 0.390971 21.3259 -0.191217 20.3326 0.0581583V0.0576895Z" fill="#F1DC54"/>
<path d="M1.3371 6.57182C1.00382 7.90166 1.86725 8.62401 3.27866 10.5084C5.41241 9.51276 6.51444 9.28307 6.84772 7.95323C6.94288 7.57448 6.88991 7.19291 6.72491 6.86994C6.60866 6.64166 5.43585 7.03166 3.97288 6.90604C2.96225 6.81932 1.51522 6.08338 1.39991 6.37494C1.37507 6.43823 1.3535 6.50385 1.33663 6.57135L1.3371 6.57182Z" fill="#EBCB00"/>
<path d="M5.71852 6.0684C5.19914 5.93808 4.67555 6.08621 4.3043 6.41761C4.1332 5.95027 3.74133 5.57293 3.22195 5.44261C2.45742 5.2509 1.68352 5.66246 1.40039 6.37543C1.67742 7.1034 2.36227 7.83652 3.2782 9.05996C5.19961 8.16324 6.28383 7.88762 6.72445 6.87043C6.52758 6.48418 6.17133 6.18183 5.71805 6.06793L5.71852 6.0684Z" fill="#F1DC54"/>
<path d="M7.93041 21.9202C7.75415 22.6228 8.21025 23.0044 8.9565 24C10.0838 23.4741 10.666 23.3527 10.8423 22.65C10.9018 22.4123 10.8512 22.1733 10.7232 21.9862C10.614 21.8269 10.052 22.1766 9.49884 22.1766C8.94572 22.1766 8.18541 21.4041 8.00962 21.7214C7.97587 21.7823 7.94916 21.8489 7.93134 21.9202H7.93041Z" fill="#EBCB00"/>
<path d="M10.2457 21.6539C9.97148 21.585 9.69492 21.6633 9.49852 21.8386C9.40805 21.5916 9.20133 21.3924 8.92664 21.3234C8.55773 21.2311 8.18555 21.4045 8.00977 21.7219C8.17805 22.0734 8.51695 22.447 8.95664 23.0344C9.8993 22.5942 10.4609 22.4372 10.7224 21.9867C10.6132 21.8274 10.4482 21.705 10.2457 21.6544V21.6539Z" fill="#F1DC54"/>
<path d="M20.5747 20.3906C20.3745 20.3906 20.2123 20.2284 20.2123 20.0282V19.1606L19.5195 18.876C19.3344 18.8001 19.2462 18.5887 19.3222 18.4035C19.3981 18.2184 19.6095 18.1303 19.7947 18.2062L20.2123 18.3778V17.8073C20.2123 17.6071 20.3745 17.4449 20.5747 17.4449C20.7748 17.4449 20.937 17.6071 20.937 17.8073V18.6749L21.6298 18.9595C21.815 19.0354 21.9031 19.2468 21.8272 19.432C21.7512 19.6171 21.5398 19.7053 21.3547 19.6293L20.937 19.4578V20.0282C20.937 20.2284 20.7748 20.3906 20.5747 20.3906Z" fill="#EBCB00"/>
</svg>
