<svg width="28" height="28" viewBox="0 0 28 28" fill="none" xmlns="http://www.w3.org/2000/svg">
<path d="M14.0163 2.33203C7.57301 2.33203 2.34961 7.5552 2.34961 13.9987C2.34961 20.4422 7.57289 25.6654 14.0163 25.6654C20.4595 25.6654 25.6829 20.4422 25.6829 13.9987C25.6829 7.5552 20.4595 2.33203 14.0163 2.33203Z" fill="#64748B" fill-opacity="0.4"/>
<path fill-rule="evenodd" clip-rule="evenodd" d="M13.9997 7C14.644 7 15.1663 7.52233 15.1663 8.16667V13.5168L18.3246 16.675C18.7802 17.1307 18.7802 17.8693 18.3246 18.325C17.869 18.7806 17.1303 18.7806 16.6747 18.325L13.1747 14.825C12.9559 14.6062 12.833 14.3094 12.833 14V8.16667C12.833 7.52233 13.3553 7 13.9997 7Z" fill="#64748B"/>
</svg>
