<svg width="14" height="14" viewBox="0 0 14 14" fill="none" xmlns="http://www.w3.org/2000/svg">
<path d="M9.04167 1.75C7.59191 1.75 6.41667 2.92542 6.41667 4.375C6.41667 5.82458 7.59191 7 9.04167 7C10.4914 7 11.6667 5.82458 11.6667 4.375C11.6667 2.92542 10.4914 1.75 9.04167 1.75ZM7.03646 7.784C5.96657 8.22558 5.25 9.30767 5.25 10.5V11.6667C5.25 11.9887 5.51116 12.25 5.83333 12.25H12.25C12.5722 12.25 12.8333 11.9887 12.8333 11.6667V10.5C12.8333 9.33567 12.1128 8.27984 11.0469 7.82017C10.8968 7.75542 10.722 7.75367 10.5729 7.82017C10.0568 8.05175 9.55395 8.16667 9.04167 8.16667C8.53113 8.16667 8.02655 8.04533 7.49222 7.80208C7.34527 7.735 7.18568 7.72216 7.03646 7.784Z" fill="black"/>
<path d="M4.66699 2.33331C3.37835 2.33331 2.33366 3.37806 2.33366 4.66665C2.33366 5.95523 3.37835 6.99998 4.66699 6.99998C5.15081 6.99998 5.59245 6.867 5.98113 6.59516C4.98433 5.1135 5.12561 3.69481 5.66887 2.55206C5.35859 2.40506 5.01781 2.33331 4.66699 2.33331ZM2.95345 7.78398C1.88356 8.22556 1.16699 9.30765 1.16699 10.5V11.6666C1.16699 11.9886 1.42815 12.25 1.75033 12.25L4.17279 12.2512C4.03629 11.8078 4.07643 11.0891 4.08541 10.5076C4.10437 9.27265 4.61508 8.3918 4.8151 8.15963C4.44748 8.15672 4.00631 8.06748 3.68262 7.92981C3.60445 7.89656 3.55907 7.87031 3.40921 7.80206C3.26227 7.73498 3.10267 7.72214 2.95345 7.78398Z" fill="black" fill-opacity="0.4"/>
</svg>
