<svg width="32" height="32" viewBox="0 0 32 32" fill="none" xmlns="http://www.w3.org/2000/svg">
<path fill-rule="evenodd" clip-rule="evenodd" d="M5.33301 13.3333C5.33301 7.44266 10.109 2.66666 15.9997 2.66666C21.8903 2.66666 26.6663 7.44266 26.6663 13.3333C26.6663 18.024 23.505 23.7453 19.625 27.6253C18.3476 28.9026 16.9983 29.3333 16.041 29.3333H15.9997C15.081 29.3466 13.8943 28.984 12.749 27.9586C12.6117 27.8333 12.505 27.724 12.3743 27.584C8.33034 23.216 5.33301 17.956 5.33301 13.3333ZM16.0026 7.98111C13.0571 7.98111 10.6693 10.3689 10.6693 13.3144C10.6693 16.26 13.0571 18.6478 16.0026 18.6478C18.9481 18.6478 21.3359 16.26 21.3359 13.3144C21.3359 10.3689 18.9481 7.98111 16.0026 7.98111Z" fill="white" fill-opacity="0.4"/>
<path fill-rule="evenodd" clip-rule="evenodd" d="M16.0023 10.6667C14.5295 10.6667 13.3356 11.8606 13.3356 13.3333C13.3356 14.8061 14.5295 16 16.0023 16C17.475 16 18.6689 14.8061 18.6689 13.3333C18.6689 11.8606 17.475 10.6667 16.0023 10.6667ZM10.6689 13.3333C10.6689 10.3878 13.0568 8 16.0023 8C18.9478 8 21.3356 10.3878 21.3356 13.3333C21.3356 16.2789 18.9478 18.6667 16.0023 18.6667C13.0568 18.6667 10.6689 16.2789 10.6689 13.3333Z" fill="white"/>
</svg>
