<svg width="28" height="28" viewBox="0 0 28 28" fill="none" xmlns="http://www.w3.org/2000/svg">
<path d="M8.93256 15.9693C6.34757 16.8735 4.66699 18.4555 4.66699 20.4167C4.66699 23.5363 8.92836 25.6667 14.0003 25.6667C19.0718 25.6667 23.3337 23.5363 23.3337 20.4167C23.3337 18.4508 21.6245 16.8723 19.031 15.9693C18.4232 15.757 17.785 16.0895 17.5727 16.6974C17.3615 17.3064 17.6578 17.9445 18.2657 18.1557C20.0285 18.7705 21.0003 19.677 21.0003 20.4167C21.0003 21.8073 17.9495 23.3333 14.0003 23.3333C10.0516 23.3333 7.00033 21.8073 7.00033 20.4167C7.00033 19.6793 7.94299 18.7705 9.69824 18.1557C10.3064 17.9434 10.6402 17.3064 10.4274 16.6974C10.2146 16.0895 9.54074 15.7558 8.93256 15.9693Z" fill="#64748B" fill-opacity="0.4"/>
<path fill-rule="evenodd" clip-rule="evenodd" d="M8.16406 8.16665C8.16406 4.94548 10.7758 2.33331 13.9974 2.33331C17.2186 2.33331 19.8307 4.94548 19.8307 8.16665C19.8307 9.25865 19.3151 10.6015 18.3724 12.2138C18.1467 12.5998 17.8811 12.9822 17.6048 13.38C17.497 13.5353 17.3875 13.693 17.2781 13.8541C16.7531 14.6288 16.1989 15.428 15.6377 16.1513C15.5606 16.2502 15.4674 16.3727 15.3678 16.5037C15.3018 16.5905 15.2329 16.681 15.1641 16.7708V19.8333C15.1641 20.4773 14.6414 21 13.9974 21C13.3534 21 12.8307 20.4773 12.8307 19.8333V16.7708C12.7619 16.681 12.693 16.5905 12.627 16.5037C12.5274 16.3727 12.4342 16.2502 12.3571 16.1513C11.7959 15.4268 11.2416 14.6288 10.7161 13.8541C10.6078 13.6945 10.4993 13.5382 10.3925 13.3843C10.1153 12.9849 9.84902 12.6012 9.6224 12.2138C8.67985 10.6015 8.16406 9.25865 8.16406 8.16665ZM14 9.31679C14.6443 9.31679 15.1666 8.79446 15.1666 8.15013C15.1666 7.50579 14.6443 6.98346 14 6.98346C13.3556 6.98346 12.8333 7.50579 12.8333 8.15013C12.8333 8.79446 13.3556 9.31679 14 9.31679Z" fill="#64748B"/>
</svg>
