<svg width="16" height="16" viewBox="0 0 16 16" fill="none" xmlns="http://www.w3.org/2000/svg">
<path d="M8.00944 1.33264C4.32757 1.33264 1.34277 4.31731 1.34277 7.99931C1.34277 11.6813 4.32751 14.666 8.00944 14.666C11.6913 14.666 14.6761 11.6813 14.6761 7.99931C14.6761 4.31731 11.6913 1.33264 8.00944 1.33264ZM8.00944 2.66597C10.955 2.66597 13.3428 5.05397 13.3428 7.99931C13.3428 10.9446 10.955 13.3326 8.00944 13.3326C5.06391 13.3326 2.67611 10.9446 2.67611 7.99931C2.67611 5.05397 5.06391 2.66597 8.00944 2.66597Z" fill="#71717A" fill-opacity="0.4"/>
<path fill-rule="evenodd" clip-rule="evenodd" d="M7.99967 4C8.36786 4 8.66634 4.29848 8.66634 4.66667V7.72386L10.4711 9.5286C10.7314 9.78895 10.7314 10.2111 10.4711 10.4714C10.2107 10.7318 9.78862 10.7318 9.52827 10.4714L7.52827 8.4714C7.40325 8.34638 7.33301 8.17681 7.33301 8V4.66667C7.33301 4.29848 7.63148 4 7.99967 4Z" fill="#71717A"/>
</svg>
