<svg width="40" height="40" viewBox="0 0 40 40" fill="none" xmlns="http://www.w3.org/2000/svg">
<path d="M31.6246 17.0704V12.7582C31.6246 12.0542 31.0486 11.2074 30.3455 10.8744L16.0828 4.14142C15.3788 3.80937 14.8037 4.1136 14.8037 4.81667V9.12879L23.2146 14.7914L31.6255 17.0694L31.6246 17.0704Z" fill="#F1DC54"/>
<path d="M26.4918 35.328C22.1918 36.0886 21.139 33.1335 21.357 32.6632C21.9859 31.3034 23.4885 30.3054 25.6626 29.9205C27.3312 29.6255 29.0351 29.9103 30.1918 30.2099C31.0637 30.4362 30.7928 34.5674 26.4928 35.328H26.4918Z" fill="#F1DC54"/>
<path d="M11.1051 28.0635C6.80505 28.8241 5.75229 25.869 5.97026 25.3987C6.59913 24.0389 8.10174 23.0409 10.2759 22.656C11.9445 22.361 13.6484 22.6458 14.8051 22.9454C15.6769 23.1717 15.4061 27.3029 11.106 28.0635H11.1051Z" fill="#F1DC54"/>
<path d="M31.6245 17.0704L14.8027 9.12973V22.9454C14.8027 25.421 13.1378 27.0006 10.9367 27.3892C8.65961 27.7918 6.71828 26.842 5.96883 25.3987C5.75178 25.869 5.6377 26.3828 5.6377 26.9301C5.6377 29.0569 8.01033 30.7747 10.9367 30.2562C13.8631 29.7377 16.2357 27.5181 16.2357 23.4054V12.672L30.1905 19.2594V30.2089C30.1905 32.6845 28.5256 34.2641 26.3245 34.6528C24.0474 35.0553 22.1061 34.1055 21.3567 32.6623C21.1396 33.1325 21.0255 33.6464 21.0255 34.1936C21.0255 36.3205 23.3982 38.0383 26.3245 37.5198C29.2509 37.0013 31.6236 34.7817 31.6236 30.669V17.0694L31.6245 17.0704Z" fill="#EBCB00"/>
<path d="M36.2227 25.1492C36.8893 25.1492 37.4297 24.6088 37.4297 23.9422C37.4297 23.2756 36.8893 22.7352 36.2227 22.7352C35.556 22.7352 35.0156 23.2756 35.0156 23.9422C35.0156 24.6088 35.556 25.1492 36.2227 25.1492Z" fill="#F1DC54"/>
<path d="M10.1025 6.95157C10.7692 6.95157 11.3096 6.41116 11.3096 5.74454C11.3096 5.07791 10.7692 4.53751 10.1025 4.53751C9.43591 4.53751 8.89551 5.07791 8.89551 5.74454C8.89551 6.41116 9.43591 6.95157 10.1025 6.95157Z" fill="#F1DC54"/>
<path d="M6.48047 33.7828C7.14709 33.7828 7.6875 33.2424 7.6875 32.5758C7.6875 31.9092 7.14709 31.3687 6.48047 31.3687C5.81384 31.3687 5.27344 31.9092 5.27344 32.5758C5.27344 33.2424 5.81384 33.7828 6.48047 33.7828Z" fill="#F1DC54"/>
<path d="M31.8585 3.51408C30.3108 3.51408 26.9905 2.35392 26.6233 3.26095C26.3796 3.86251 26.3179 4.54376 26.4874 5.22111C27.1679 7.93517 29.4171 8.40392 33.7718 10.436C36.653 6.58908 38.4155 5.11564 37.7351 2.40079C37.7241 2.35783 37.7124 2.31486 37.6999 2.27189C37.221 0.650013 33.4061 3.51329 31.8585 3.51329V3.51408Z" fill="#EBCB00"/>
<path d="M33.8873 0.0960983C32.8279 0.361723 32.0271 1.13204 31.6787 2.08594C30.9209 1.40938 29.8521 1.10782 28.7928 1.37344C27.7709 1.62969 26.9912 2.35469 26.624 3.26094C27.4396 5.58047 29.6725 6.1086 33.7717 8.02188C35.7553 5.37422 37.2076 3.85079 37.699 2.27344C37.2201 0.651567 35.5428 -0.318745 33.8873 0.0968796V0.0960983Z" fill="#F1DC54"/>
<path d="M2.2285 10.9531C1.67303 13.1695 3.11209 14.3734 5.46443 17.5141C9.02068 15.8547 10.8574 15.4719 11.4129 13.2555C11.5715 12.6242 11.4832 11.9883 11.2082 11.45C11.0144 11.0695 9.05974 11.7195 6.62146 11.5102C4.93709 11.3656 2.52537 10.1391 2.33318 10.625C2.29178 10.7305 2.25584 10.8399 2.22771 10.9524L2.2285 10.9531Z" fill="#EBCB00"/>
<path d="M9.53086 10.1141C8.66523 9.89689 7.79258 10.1438 7.17383 10.6961C6.88867 9.9172 6.23555 9.28829 5.36992 9.07111C4.0957 8.75157 2.80586 9.43751 2.33398 10.6258C2.7957 11.8391 3.93711 13.0609 5.46367 15.1C8.66602 13.6055 10.473 13.1461 11.2074 11.4508C10.8793 10.807 10.2855 10.3031 9.53008 10.1133L9.53086 10.1141Z" fill="#F1DC54"/>
<path d="M13.2183 36.5336C12.9246 37.7047 13.6847 38.3406 14.9285 40C16.8074 39.1234 17.7777 38.9211 18.0714 37.75C18.1707 37.3539 18.0863 36.9555 17.873 36.6437C17.691 36.3781 16.7543 36.9609 15.8324 36.9609C14.9105 36.9609 13.6433 35.6734 13.3503 36.2023C13.2941 36.3039 13.2496 36.4148 13.2199 36.5336H13.2183Z" fill="#EBCB00"/>
<path d="M17.0762 36.0899C16.6191 35.975 16.1582 36.1055 15.8309 36.3977C15.6801 35.9859 15.3355 35.6539 14.8777 35.5391C14.2629 35.3852 13.6426 35.6742 13.3496 36.2031C13.6301 36.7891 14.1949 37.4117 14.9277 38.3906C16.4988 37.657 17.4348 37.3953 17.8707 36.6445C17.6887 36.3789 17.4137 36.175 17.0762 36.0906V36.0899Z" fill="#F1DC54"/>
<path d="M34.2902 33.9844C33.9566 33.9844 33.6862 33.7141 33.6862 33.3805V31.9344L32.5316 31.4602C32.223 31.3336 32.0761 30.9813 32.2027 30.6727C32.3292 30.3641 32.6816 30.2172 32.9902 30.3438L33.6862 30.6297V29.6789C33.6862 29.3453 33.9566 29.075 34.2902 29.075C34.6237 29.075 34.8941 29.3453 34.8941 29.6789V31.125L36.0487 31.5992C36.3573 31.7258 36.5042 32.0781 36.3777 32.3867C36.2511 32.6953 35.8987 32.8422 35.5902 32.7156L34.8941 32.4297V33.3805C34.8941 33.7141 34.6237 33.9844 34.2902 33.9844Z" fill="#EBCB00"/>
</svg>
