<svg width="40" height="40" viewBox="0 0 40 40" fill="none" xmlns="http://www.w3.org/2000/svg">
<path d="M20.1719 36.5869C29.4485 36.5869 36.9687 29.0682 36.9687 19.7935C36.9687 10.5187 29.4485 3 20.1719 3C10.8952 3 3.375 10.5187 3.375 19.7935C3.375 29.0682 10.8952 36.5869 20.1719 36.5869Z" fill="#9FD198"/>
<path d="M25.6081 3.89978C28.6048 12.684 23.9123 22.233 15.1263 25.2291C11.608 26.4288 7.79171 26.4288 4.27441 25.2291C7.27834 34.0062 16.8303 38.6864 25.6081 35.682C34.3869 32.6787 39.068 23.1287 36.0631 14.3527C34.3817 9.43954 30.5212 5.58078 25.6081 3.89978Z" fill="#8DC986"/>
<path d="M34.083 29.2074C36.3488 19.7069 31.9842 14.7536 29.1668 11.3668C28.1112 10.0981 27.1773 8.97367 26.6319 7.85438C29.7699 8.0131 32.0862 9.16434 34.0902 10.3908C33.5934 9.65699 33.0387 8.96439 32.4336 8.31817C30.5296 7.41738 28.5308 6.84846 26.2402 6.79177C26.0361 5.92603 26.0712 5.02111 26.3402 4.17289V4.16979C26.0227 4.04405 25.699 3.92759 25.3712 3.82143C25.0547 4.782 24.9908 5.80853 25.1867 6.80105C23.6002 6.88247 22.0281 7.15147 20.5045 7.6029C18.6716 5.34371 16.9625 3.99974 16.2192 3.46689C15.7759 3.57408 15.3389 3.69775 14.909 3.83998L15.2842 4.076C15.3069 4.09043 17.2532 5.33237 19.4376 7.93168C18.3706 8.28313 16.7903 8.79743 14.4111 10.3578C12.1102 8.27076 9.41966 8.18522 7.86099 8.36661C7.48679 8.7696 7.13321 9.1901 6.79921 9.62813L6.87652 9.6034C6.91569 9.59103 10.5876 8.47586 13.5369 10.9618C7.62905 15.2493 5.19313 21.3508 4.34473 25.4291C4.56121 26.0372 4.81377 26.6329 5.09932 27.2121C5.20962 26.1526 6.36006 17.3529 14.2843 11.6987C15.6739 13.3457 15.2451 15.0823 14.5616 17.8455C13.5916 21.7682 12.2679 27.1224 15.3131 35.8747C15.7089 35.9943 16.111 36.0994 16.5182 36.1901C13.4081 27.4893 14.4513 22.5824 15.5615 18.0939C16.2388 15.3534 16.7831 13.1478 15.1399 11.1195C17.4459 9.63432 19.0458 9.13651 20.1344 8.79846C25.3588 15.6049 24.9682 31.708 24.8177 35.9027L25.8475 35.6369C25.9784 32.0111 26.6237 15.7997 21.1952 8.49338C22.6003 8.11101 24.0445 7.89251 25.499 7.84407C26.0609 9.24473 27.1391 10.5434 28.3751 12.0285C31.5533 15.8492 35.5097 20.6046 32.7625 30.1824L34.084 29.2105L34.083 29.2074Z" fill="#29991A"/>
</svg>
