<svg width="40" height="40" viewBox="0 0 40 40" fill="none" xmlns="http://www.w3.org/2000/svg">
<g clip-path="url(#clip0_2717_1838)">
<path d="M20.3813 5.71027C20.007 5.71027 19.7031 5.40615 19.7031 5.03166V0.678602C19.7031 0.30412 20.007 0 20.3813 0C20.7555 0 21.0594 0.30412 21.0594 0.678602V5.03166C21.0594 5.40615 20.7555 5.71027 20.3813 5.71027Z" fill="#F24429"/>
<path d="M23.093 7.66088V4.72053C23.093 4.34605 22.7891 4.04193 22.4148 4.04193H18.3469C17.9773 4.04193 17.6687 4.35074 17.6687 4.72053V7.66088C9.97344 8.9532 4.10938 15.6493 4.10938 23.7175C4.10938 32.7097 11.3945 40 20.3805 40C29.3664 40 36.6516 32.7097 36.6516 23.7175C36.6516 15.6493 30.7875 8.9532 23.0922 7.66088H23.093Z" fill="#F78D7D"/>
<path d="M23.0934 8.11276H17.6699V4.72053C17.6699 4.34605 17.9738 4.04193 18.348 4.04193H22.416C22.7902 4.04193 23.0941 4.34605 23.0941 4.72053V8.11276H23.0934Z" fill="#F78D7D"/>
<path d="M19.7033 4.04266H18.3471C17.9729 4.04266 17.6689 4.34678 17.6689 4.72127V8.11349H19.0252V4.72127C19.0252 4.34678 19.3291 4.04266 19.7033 4.04266Z" fill="#F5715C"/>
<path d="M29.6973 15.3733C33.902 17.2129 36.652 20.2643 36.652 23.7167C36.652 14.7244 29.3668 7.43414 20.3809 7.43414C24.3395 7.43414 27.8027 10.6184 29.6973 15.3733Z" fill="#F78D7D"/>
<path d="M29.6973 32.0608C27.8035 36.8157 24.3402 40 20.3809 40C29.3668 40 36.652 32.7097 36.652 23.7175C36.652 27.1707 33.902 30.2213 29.6973 32.0616V32.0608Z" fill="#F6806E"/>
<path d="M11.065 32.0608C6.86035 30.2212 4.11035 27.1699 4.11035 23.7167C4.11035 32.7089 11.3955 39.9992 20.3814 39.9992C16.4229 39.9992 12.9596 36.8149 11.065 32.0608Z" fill="#F78D7D"/>
<path d="M11.065 15.3733C12.9588 10.6184 16.4221 7.43414 20.3814 7.43414C11.3955 7.43414 4.11035 14.7244 4.11035 23.7167C4.11035 20.2635 6.86035 17.2129 11.065 15.3733Z" fill="#F78D7D"/>
<path d="M29.6973 15.3733C30.3926 17.1183 30.8762 19.0752 31.0957 21.1641C34.5012 21.7857 36.6527 22.6988 36.6527 23.7167C36.6527 20.2635 33.902 17.2129 29.698 15.3726L29.6973 15.3733Z" fill="#FAAFA3"/>
<path d="M9.66758 21.1641C9.88711 19.0751 10.3707 17.1183 11.066 15.3733C6.86133 17.2129 4.11133 20.2642 4.11133 23.7174C4.11133 22.6995 6.26211 21.7864 9.66836 21.1649L9.66758 21.1641Z" fill="#FAAFA3"/>
<path d="M31.0957 26.27C30.877 28.359 30.3926 30.3158 29.6973 32.0608C33.902 30.2212 36.652 27.1699 36.652 23.7167C36.652 24.7346 34.5004 25.6477 31.0949 26.2693L31.0957 26.27Z" fill="#F78D7D"/>
<path d="M11.0648 32.0608C10.3695 30.3159 9.88594 28.359 9.66641 26.27C6.26094 25.6485 4.10938 24.7354 4.10938 23.7175C4.10938 27.1707 6.86016 30.2213 11.0641 32.0616L11.0648 32.0608Z" fill="#F5715C"/>
<path d="M31.0957 21.1641C31.1832 21.996 31.2285 22.8481 31.2285 23.7167C31.2285 24.5853 31.1824 25.4374 31.0957 26.2693C34.5012 25.6477 36.6527 24.7346 36.6527 23.7167C36.6527 22.6988 34.5012 21.7857 31.0957 21.1641Z" fill="#F6806E"/>
<path d="M9.66738 26.27C9.57988 25.4382 9.53457 24.586 9.53457 23.7174C9.53457 22.8489 9.58066 21.9967 9.66738 21.1649C6.26191 21.7864 4.11035 22.6995 4.11035 23.7174C4.11035 24.7353 6.26113 25.6485 9.66738 26.27Z" fill="#F78D7D"/>
<path d="M29.6975 32.0608C27.7506 32.913 25.492 33.5048 23.0506 33.7565C22.4303 37.5576 21.4654 40 20.3818 40C24.3404 40 27.8037 36.8157 29.6982 32.0608H29.6975Z" fill="#F9AB9F"/>
<path d="M23.0504 13.6776C25.4926 13.9293 27.7512 14.5212 29.6973 15.3733C27.8035 10.6184 24.3402 7.43414 20.3809 7.43414C21.4645 7.43414 22.4293 9.87649 23.0496 13.6768L23.0504 13.6776Z" fill="#F9AB9F"/>
<path d="M11.0652 15.3733C13.0121 14.5212 15.2707 13.9293 17.7121 13.6776C18.3324 9.87649 19.2973 7.43414 20.3809 7.43414C16.4223 7.43414 12.959 10.6184 11.0645 15.3733H11.0652Z" fill="#FAAFA3"/>
<path d="M17.7123 33.7565C15.2701 33.5048 13.0115 32.9122 11.0654 32.0608C12.9592 36.8157 16.4225 40 20.3818 40C19.2982 40 18.3334 37.5576 17.7131 33.7573L17.7123 33.7565Z" fill="#F45941"/>
<path d="M31.0961 21.1641C30.8773 19.0752 30.393 17.1183 29.6977 15.3733C27.7508 14.5212 25.4922 13.9294 23.0508 13.6776C23.3664 15.6126 23.5938 17.8993 23.7008 20.3956C26.4953 20.5168 29.0273 20.7865 31.0961 21.1641Z" fill="#F78D7D"/>
<path d="M17.7123 13.6776C15.2701 13.9294 13.0115 14.5212 11.0654 15.3733C10.3701 17.1183 9.88652 19.0752 9.66699 21.1641C11.7357 20.7865 14.2678 20.516 17.0623 20.3956C17.1701 17.8993 17.3967 15.6126 17.7123 13.6776Z" fill="#F78D7D"/>
<path d="M9.66699 26.27C9.88652 28.359 10.3701 30.3158 11.0654 32.0608C13.0123 32.913 15.2709 33.5048 17.7123 33.7565C17.3967 31.8216 17.1693 29.5348 17.0623 27.0385C14.2678 26.9181 11.7357 26.6476 9.66699 26.27Z" fill="#F78D7D"/>
<path d="M23.7008 27.0385C23.593 29.5348 23.3664 31.8216 23.0508 33.7565C25.493 33.5048 27.7516 32.9122 29.6977 32.0608C30.393 30.3158 30.8766 28.359 31.0961 26.27C29.0273 26.6476 26.4953 26.9181 23.7008 27.0385Z" fill="#FAAFA3"/>
<path d="M16.991 23.7174C16.991 22.5791 17.0152 21.4682 17.0613 20.3964C14.2668 20.5175 11.7348 20.7873 9.66602 21.1649C9.57852 21.9967 9.5332 22.8489 9.5332 23.7174C9.5332 24.586 9.5793 25.4382 9.66602 26.27C11.7348 26.6476 14.2668 26.9181 17.0613 27.0385C17.0152 25.9659 16.991 24.8557 16.991 23.7167V23.7174Z" fill="#F45941"/>
<path d="M23.7715 23.7174C23.7715 24.8557 23.7473 25.9667 23.7012 27.0385C26.4957 26.9174 29.0277 26.6476 31.0965 26.27C31.184 25.4382 31.2293 24.586 31.2293 23.7174C31.2293 22.8489 31.1832 21.9967 31.0965 21.1649C29.0277 20.7873 26.4957 20.5168 23.7012 20.3964C23.7473 21.469 23.7715 22.5799 23.7715 23.7182V23.7174Z" fill="#F9AB9F"/>
<path d="M17.7129 13.6776C18.5816 13.5877 19.473 13.5408 20.3816 13.5408C21.2902 13.5408 22.1824 13.5885 23.0504 13.6776C22.4301 9.87649 21.4652 7.43414 20.3816 7.43414C19.298 7.43414 18.3332 9.87649 17.7129 13.6776Z" fill="#F78D7D"/>
<path d="M23.0504 33.7565C22.1816 33.8464 21.2902 33.8933 20.3816 33.8933C19.473 33.8933 18.5816 33.8457 17.7129 33.7565C18.3332 37.5576 19.298 40 20.3816 40C21.4652 40 22.4301 37.5576 23.0504 33.7565Z" fill="#F78D7D"/>
<path d="M20.3811 27.1097C19.2436 27.1097 18.1334 27.0854 17.0615 27.0393C17.1693 29.5356 17.3959 31.8224 17.7115 33.7573C18.5803 33.8472 19.4717 33.8941 20.3803 33.8941C21.2889 33.8941 22.1811 33.8464 23.049 33.7573C23.3646 31.8224 23.592 29.5356 23.699 27.0393C22.6271 27.0854 21.5178 27.1097 20.3803 27.1097H20.3811Z" fill="#F6806E"/>
<path d="M20.3814 20.3252C21.5189 20.3252 22.6291 20.3495 23.701 20.3956C23.5932 17.8993 23.3666 15.6125 23.051 13.6776C22.1822 13.5877 21.2908 13.5408 20.3822 13.5408C19.4736 13.5408 18.5822 13.5885 17.7135 13.6776C17.3979 15.6125 17.1705 17.8993 17.0635 20.3956C18.1354 20.3495 19.2455 20.3252 20.3822 20.3252H20.3814Z" fill="#FAAFA3"/>
<path d="M23.7006 20.3956C22.6287 20.3495 21.5186 20.3253 20.3811 20.3253C19.2436 20.3253 18.1334 20.3495 17.0615 20.3956C17.0154 21.4682 16.9912 22.5792 16.9912 23.7167C16.9912 24.8542 17.0154 25.9659 17.0615 27.0378C18.1334 27.0839 19.2436 27.1081 20.3811 27.1081C21.5186 27.1081 22.6287 27.0839 23.6998 27.0378C23.7459 25.9652 23.7701 24.8542 23.7701 23.7167C23.7701 22.5784 23.7459 21.4675 23.6998 20.3956H23.7006Z" fill="#F78D7D"/>
<path d="M6.27207 28.7874C4.89707 27.295 4.11035 25.5633 4.11035 23.7167C4.11035 32.7089 11.3955 39.9992 20.3814 39.9992C19.451 39.9992 18.5486 39.821 17.6869 39.4903C12.2986 38.1088 7.98926 34.0349 6.27207 28.7866V28.7874Z" fill="#F5715C"/>
<path d="M5.5252 25.102C4.6166 24.6791 4.11035 24.2108 4.11035 23.7175C4.11035 25.5641 4.89707 27.295 6.27207 28.7874C5.8877 27.6124 5.63301 26.3779 5.5252 25.102Z" fill="#F35138"/>
<path d="M5.4668 23.7175C5.4668 23.2507 5.48789 22.7895 5.52617 22.3329C4.61758 22.7558 4.11133 23.2241 4.11133 23.7175C4.11133 24.2108 4.61836 24.6791 5.52617 25.102C5.48789 24.6454 5.4668 24.1842 5.4668 23.7175Z" fill="#F5715C"/>
<path d="M6.27207 18.6467C4.89707 20.1392 4.11035 21.8709 4.11035 23.7167C4.11035 23.2234 4.6166 22.7551 5.5252 22.3321C5.63301 21.0562 5.88691 19.8218 6.27207 18.6467Z" fill="#F78D7D"/>
<path d="M17.6871 7.94309C18.5488 7.61239 19.4512 7.43414 20.3824 7.43414C11.3965 7.43414 4.11133 14.7244 4.11133 23.7167C4.11133 21.8701 4.89805 20.1392 6.27305 18.6467C7.99023 13.3985 12.2996 9.32453 17.6879 7.94309H17.6871Z" fill="#F5715C"/>
<path d="M39.5693 5.47569L36.1904 4.32097L35.235 0.495627C35.1646 0.212615 34.91 0.0140381 34.6186 0.0140381C34.3271 0.0140381 34.0725 0.212615 34.0022 0.495627L33.0467 4.32097L29.6678 5.47569C29.4107 5.56325 29.2373 5.80561 29.2373 6.07768C29.2373 6.34974 29.41 6.59132 29.6678 6.67966L33.0467 7.83438L34.0022 11.6597C34.0725 11.9427 34.3271 12.1413 34.6186 12.1413C34.91 12.1413 35.1646 11.9427 35.235 11.6597L36.1904 7.83438L39.5693 6.67966C39.8264 6.5921 39.9998 6.34974 39.9998 6.07768C39.9998 5.80561 39.8271 5.56325 39.5693 5.47569Z" fill="#FDE3DF"/>
<path d="M10.333 8.18937L6.9541 7.03466L5.99863 3.20931C5.9291 2.92943 5.67051 2.72772 5.38223 2.72772C5.09395 2.72772 4.83535 2.92943 4.76582 3.20931L3.81035 7.03466L0.431445 8.18937C0.176758 8.27615 0.000976562 8.52242 0.000976562 8.79136C0.000976562 9.0603 0.176758 9.30657 0.431445 9.39335L3.81035 10.5481L4.76582 14.3734C4.83613 14.6533 5.09395 14.855 5.38223 14.855C5.67051 14.855 5.9291 14.6533 5.99863 14.3734L6.9541 10.5481L10.333 9.39335C10.59 9.30579 10.7635 9.06343 10.7635 8.79136C10.7635 8.51929 10.5908 8.27772 10.333 8.18937Z" fill="#FDE3DF"/>
<path d="M32.8994 33.1366L29.5205 31.9819L28.565 28.1565C28.4947 27.8735 28.24 27.6749 27.9486 27.6749C27.6572 27.6749 27.4025 27.8735 27.3322 28.1565L26.3768 31.9819L22.9979 33.1366C22.7408 33.2241 22.5674 33.4665 22.5674 33.7386C22.5674 34.0106 22.74 34.253 22.9979 34.3406L26.3768 35.4953L27.3322 39.3206C27.4025 39.6036 27.6572 39.8022 27.9486 39.8022C28.24 39.8022 28.4947 39.6036 28.565 39.3206L29.5205 35.4953L32.8994 34.3406C33.1564 34.253 33.3299 34.0106 33.3299 33.7386C33.3299 33.4665 33.1572 33.2241 32.8994 33.1366Z" fill="#FDE3DF"/>
</g>
<defs>
<clipPath id="clip0_2717_1838">
<rect width="40" height="40" fill="white"/>
</clipPath>
</defs>
</svg>
