<svg width="40" height="40" viewBox="0 0 40 40" fill="none" xmlns="http://www.w3.org/2000/svg">
<g clip-path="url(#clip0_2717_1878)">
<path d="M0.693127 21.1689L0.693127 18.9203C0.693127 18.475 1.0535 18.114 1.49786 18.114L39.5703 18.114C40.0146 18.114 40.375 18.475 40.375 18.9203L40.375 21.1689C40.375 21.6141 40.0146 21.9752 39.5703 21.9752L1.49786 21.9752C1.0535 21.9752 0.693127 21.6141 0.693127 21.1689Z" fill="#E7E8F0"/>
<path d="M27.8066 18.114L27.8066 21.9752L25.5428 21.9752L25.5428 18.114L27.8066 18.114Z" fill="#BBC0D5"/>
<path d="M27.8073 27.2426L27.8073 12.8465C27.8073 11.2574 29.0935 9.96869 30.6795 9.96869C32.2656 9.96869 33.5518 11.2574 33.5518 12.8465L33.5518 27.2426C33.5518 28.8317 32.2656 30.1204 30.6795 30.1204C29.0935 30.1204 27.8073 28.8317 27.8073 27.2426Z" fill="#45518B"/>
<path d="M37.3369 23.4831L37.3369 16.606C37.3369 15.3848 36.3486 14.3945 35.1298 14.3945L33.5515 14.3945L33.5515 25.6945L35.1298 25.6945C36.3486 25.6945 37.3369 24.7043 37.3369 23.4831Z" fill="#5D689A"/>
<path d="M13.2627 27.2426L13.2627 12.8465C13.2627 11.2574 11.9765 9.96869 10.3905 9.96869C8.80444 9.96869 7.51824 11.2574 7.51824 12.8465L7.51824 27.2426C7.51824 28.8317 8.80444 30.1204 10.3905 30.1204C11.9765 30.1204 13.2627 28.8317 13.2627 27.2426Z" fill="#45518B"/>
<path d="M33.5518 27.2425L33.5518 24.8236C33.5518 26.4127 32.2656 27.7014 30.6795 27.7014C29.0935 27.7014 27.8073 26.4127 27.8073 24.8236L27.8073 27.2425C27.8073 28.8316 29.0935 30.1204 30.6795 30.1204C32.2656 30.1204 33.5518 28.8316 33.5518 27.2425Z" fill="#0E1D69"/>
<path d="M13.2617 27.2425L13.2617 24.8236C13.2617 26.4127 11.9755 27.7014 10.3895 27.7014C8.80347 27.7014 7.51726 26.4127 7.51726 24.8236L7.51726 27.2425C7.51726 28.8316 8.80347 30.1204 10.3895 30.1204C11.9755 30.1204 13.2617 28.8316 13.2617 27.2425Z" fill="#0E1D69"/>
<path d="M3.73123 23.4831L3.73123 16.606C3.73123 15.3848 4.71957 14.3945 5.93839 14.3945L7.51758 14.3945L7.51758 25.6945L5.93839 25.6945C4.71957 25.6945 3.73123 24.7043 3.73123 23.4831Z" fill="#5D689A"/>
<path d="M37.3369 23.4831L37.3369 21.0642C37.3369 22.2854 36.3486 23.2757 35.1298 23.2757L33.5515 23.2757L33.5515 25.6956L35.1298 25.6956C36.3486 25.6956 37.3369 24.7053 37.3369 23.4841L37.3369 23.4831Z" fill="#45518B"/>
<path d="M7.51758 23.2746L5.93839 23.2746C4.71957 23.2746 3.73123 22.2844 3.73124 21.0632L3.73123 23.4821C3.73123 24.7033 4.71957 25.6935 5.93839 25.6935L7.51758 25.6935L7.51758 23.2737L7.51758 23.2746Z" fill="#45518B"/>
</g>
<defs>
<clipPath id="clip0_2717_1878">
<rect width="40" height="40" fill="white"/>
</clipPath>
</defs>
</svg>
