<svg width="40" height="40" viewBox="0 0 40 40" fill="none" xmlns="http://www.w3.org/2000/svg">
<path d="M36.9416 36.9986H18.848C18.234 36.9986 17.7354 36.4952 17.7354 35.8753C17.7354 35.2555 18.234 34.752 18.848 34.752H36.9416C37.5556 34.752 38.0543 35.2555 38.0543 35.8753C38.0543 36.4952 37.5556 36.9986 36.9416 36.9986Z" fill="#786DEF"/>
<path d="M18.8477 37C28.1653 37 35.7187 29.3941 35.7187 20.0117C35.7187 10.6294 28.1653 3.02344 18.8477 3.02344C9.53001 3.02344 1.97656 10.6294 1.97656 20.0117C1.97656 29.3941 9.53001 37 18.8477 37Z" fill="#BEB9F8"/>
<path d="M18.849 14.5845C21.1414 14.5845 22.9997 12.7135 22.9997 10.4055C22.9997 8.09747 21.1414 6.22644 18.849 6.22644C16.5566 6.22644 14.6982 8.09747 14.6982 10.4055C14.6982 12.7135 16.5566 14.5845 18.849 14.5845Z" fill="#786DEF"/>
<path d="M29.202 21.0144C27.0224 21.7282 24.6803 20.5264 23.9719 18.3331C23.2634 16.1384 24.4567 13.781 26.6362 13.0672C28.8158 12.3534 31.1565 13.5552 31.8663 15.7499C32.5748 17.9446 31.3815 20.302 29.202 21.0158V21.0144Z" fill="#786DEF"/>
<path d="M21.0992 30.2336C19.7517 28.3671 20.1615 25.753 22.016 24.3969C23.8705 23.0395 26.4654 23.4532 27.8129 25.3197C29.1603 27.1863 28.7505 29.7989 26.896 31.1564C25.0415 32.5139 22.4466 32.1002 21.0992 30.2336Z" fill="#786DEF"/>
<path d="M9.88629 25.3253C11.2324 23.4573 13.8273 23.0436 15.6832 24.3983C17.5377 25.7544 17.9502 28.367 16.6028 30.235C15.2553 32.1029 12.6618 32.5166 10.8059 31.1605C8.9514 29.8045 8.53883 27.1918 9.88629 25.3253Z" fill="#786DEF"/>
<path d="M11.0572 13.0714C13.2368 13.7838 14.4314 16.1398 13.7244 18.3359C13.0173 20.5306 10.6766 21.7338 8.49564 21.0214C6.31608 20.309 5.12142 17.9516 5.82849 15.7569C6.53557 13.5622 8.87627 12.3604 11.0572 13.0714Z" fill="#786DEF"/>
<path opacity="0.1" d="M17.7057 10.4055C17.7057 8.6315 18.8031 7.11695 20.352 6.51113C19.8853 6.32882 19.3782 6.22784 18.8476 6.22784C16.5555 6.22784 14.6982 8.09861 14.6982 10.4069C14.6982 12.7152 16.5569 14.586 18.8476 14.586C19.3782 14.586 19.8853 14.485 20.352 14.3027C18.8031 13.6955 17.7057 12.1809 17.7057 10.4083V10.4055Z" fill="black"/>
<path opacity="0.1" d="M13.8147 31.1605C11.9602 29.8045 11.5477 27.1918 12.8951 25.3253C13.3827 24.6494 14.0328 24.1655 14.751 23.8851C13.0354 23.2119 11.0198 23.7546 9.88764 25.3253C8.54157 27.1933 8.95275 29.8059 10.8073 31.1605C11.9908 32.0258 13.4772 32.1689 14.7469 31.6738C14.4218 31.5462 14.1092 31.3765 13.8147 31.1605Z" fill="black"/>
<path opacity="0.1" d="M8.83611 15.7555C9.23618 14.5144 10.1586 13.5903 11.2796 13.1513C11.206 13.1233 11.1324 13.0952 11.0573 13.0714C8.8764 12.359 6.53569 13.5608 5.82862 15.7569C5.12155 17.9516 6.31482 20.309 8.49577 21.0214C9.44316 21.3313 10.4197 21.278 11.281 20.9415C9.24313 20.1463 8.15404 17.8773 8.8375 15.7583L8.83611 15.7555Z" fill="black"/>
<path d="M17.6832 22.2583C16.3496 21.5753 15.8203 19.9332 16.4982 18.5911C17.1775 17.249 18.8084 16.7147 20.142 17.3991C21.4741 18.082 22.0048 19.7242 21.3255 21.0677C20.6462 22.4097 19.0154 22.9441 17.6818 22.2597L17.6832 22.2583Z" fill="#786DEF"/>
</svg>
