<svg width="20" height="20" viewBox="0 0 20 20" fill="none" xmlns="http://www.w3.org/2000/svg">
<path d="M12.9167 2.5C10.8456 2.5 9.16667 4.17917 9.16667 6.25C9.16667 8.32083 10.8456 10 12.9167 10C14.9878 10 16.6667 8.32083 16.6667 6.25C16.6667 4.17917 14.9878 2.5 12.9167 2.5ZM10.0521 11.12C8.52367 11.7508 7.5 13.2967 7.5 15V16.6667C7.5 17.1267 7.87308 17.5 8.33333 17.5H17.5C17.9602 17.5 18.3333 17.1267 18.3333 16.6667V15C18.3333 13.3367 17.304 11.8283 15.7813 11.1717C15.5669 11.0792 15.3172 11.0767 15.1042 11.1717C14.3668 11.5025 13.6485 11.6667 12.9167 11.6667C12.1873 11.6667 11.4665 11.4933 10.7032 11.1458C10.4932 11.05 10.2653 11.0317 10.0521 11.12Z" fill="#64748B"/>
<path d="M6.66699 3.33331C4.82608 3.33331 3.33366 4.82581 3.33366 6.66665C3.33366 8.50748 4.82608 9.99998 6.66699 9.99998C7.35816 9.99998 7.98908 9.81 8.54433 9.42167C7.12033 7.30501 7.32216 5.27831 8.09824 3.64581C7.65499 3.43581 7.16816 3.33331 6.66699 3.33331ZM4.21908 11.12C2.69066 11.7508 1.66699 13.2966 1.66699 15V16.6666C1.66699 17.1266 2.04008 17.5 2.50033 17.5L5.96099 17.5017C5.76599 16.8683 5.82333 15.8416 5.83616 15.0108C5.86324 13.2466 6.59283 11.9883 6.87858 11.6566C6.35341 11.6525 5.72316 11.525 5.26074 11.3283C5.14908 11.2808 5.08424 11.2433 4.87016 11.1458C4.66024 11.05 4.43224 11.0316 4.21908 11.12Z" fill="#64748B" fill-opacity="0.4"/>
</svg>
